<?xml version="1.0" encoding="UTF-8" standalone="no"?>
<svg xmlns:xlink="http://www.w3.org/1999/xlink" height="59.35px" width="67.8px" xmlns="http://www.w3.org/2000/svg">
  <g transform="matrix(1.0, 0.0, 0.0, 1.0, 34.65, 30.9)">
    <path d="M-19.75 -16.3 L-8.65 -2.05 -15.0 4.2 -27.6 -8.45 -19.75 -16.3" fill="#e5e5e4" fill-rule="evenodd" stroke="none"/>
    <path d="M-19.75 -16.3 L-27.6 -8.45 -15.0 4.2 -8.65 -2.05 -19.75 -16.3 Z" fill="none" stroke="#706f6f" stroke-linecap="butt" stroke-linejoin="miter" stroke-miterlimit="10.0" stroke-width="1.0"/>
    <path d="M18.35 -17.25 L27.25 -8.45 14.65 4.2 8.0 -2.05 18.35 -17.25" fill="#e5e5e4" fill-rule="evenodd" stroke="none"/>
    <path d="M18.35 -17.25 L27.25 -8.45 14.65 4.2 8.0 -2.05 18.35 -17.25 Z" fill="none" stroke="#706f6f" stroke-linecap="butt" stroke-linejoin="miter" stroke-miterlimit="10.0" stroke-width="1.0"/>
    <path d="M18.35 -2.05 L-19.75 -2.05 -19.75 -18.15 18.35 -18.15 18.35 -2.05" fill="#e5e5e4" fill-rule="evenodd" stroke="none"/>
    <path d="M18.35 -2.05 L-19.75 -2.05 -19.75 -18.15 18.35 -18.15 18.35 -2.05 Z" fill="none" stroke="#706f6f" stroke-linecap="butt" stroke-linejoin="miter" stroke-miterlimit="10.0" stroke-width="1.0"/>
    <path d="M10.1 -15.3 L-12.65 -15.3 -12.65 -25.2 10.1 -25.2 10.1 -15.3" fill="#e5e5e4" fill-rule="evenodd" stroke="none"/>
    <path d="M10.1 -15.3 L-12.65 -15.3 -12.65 -25.2 10.1 -25.2 10.1 -15.3 Z" fill="none" stroke="#706f6f" stroke-linecap="butt" stroke-linejoin="miter" stroke-miterlimit="10.0" stroke-width="1.0"/>
    <path d="M6.5 -24.25 L-8.65 -24.25 -8.65 -30.4 6.5 -30.4 6.5 -24.25" fill="#e5e5e4" fill-rule="evenodd" stroke="none"/>
    <path d="M6.5 -24.25 L-8.65 -24.25 -8.65 -30.4 6.5 -30.4 6.5 -24.25 Z" fill="none" stroke="#706f6f" stroke-linecap="butt" stroke-linejoin="miter" stroke-miterlimit="10.0" stroke-width="1.0"/>
    <path d="M7.4 16.8 L-8.65 16.8 -8.65 -2.05 7.4 -2.05 7.4 16.8" fill="#e5e5e4" fill-rule="evenodd" stroke="none"/>
    <path d="M7.4 16.8 L-8.65 16.8 -8.65 -2.05 7.4 -2.05 7.4 16.8 Z" fill="none" stroke="#706f6f" stroke-linecap="butt" stroke-linejoin="miter" stroke-miterlimit="10.0" stroke-width="1.0"/>
    <path d="M0.8 24.3 Q1.0 25.9 -0.2 26.1 -1.4 26.3 -2.3 24.6 -2.6 26.5 -3.7 25.85 -4.85 25.25 -4.85 22.55 -5.25 25.35 -6.95 25.2 -8.7 25.05 -7.95 22.6 -8.85 23.7 -9.75 23.4 -10.7 23.05 -9.65 21.6 -12.3 21.85 -11.55 20.6 L-10.25 19.25 Q-11.15 19.35 -11.85 18.05 -12.55 16.8 -10.7 16.7 L-8.65 16.8 -0.7 16.75 9.2 16.85 Q11.1 16.95 11.0 17.65 10.9 18.3 9.4 18.95 11.7 19.05 11.3 20.15 10.85 21.15 9.1 21.7 10.95 22.5 10.25 23.15 9.6 23.8 8.1 23.7 9.45 24.9 8.25 25.4 7.1 25.85 5.75 24.0 6.45 25.8 5.55 26.25 4.6 26.7 3.6 25.05 3.95 26.65 2.9 26.3 1.9 25.95 0.8 24.3" fill="#e5e5e4" fill-rule="evenodd" stroke="none"/>
    <path d="M0.8 24.3 Q1.9 25.95 2.9 26.3 3.95 26.65 3.6 25.05 4.6 26.7 5.55 26.25 6.45 25.8 5.75 24.0 7.1 25.85 8.25 25.4 9.45 24.9 8.1 23.7 9.6 23.8 10.25 23.15 10.95 22.5 9.1 21.7 10.85 21.15 11.3 20.15 11.7 19.05 9.4 18.95 10.9 18.3 11.0 17.65 11.1 16.95 9.2 16.85 L-0.7 16.75 -8.65 16.8 -10.7 16.7 Q-12.55 16.8 -11.85 18.05 -11.15 19.35 -10.25 19.25 L-11.55 20.6 Q-12.3 21.85 -9.65 21.6 -10.7 23.05 -9.75 23.4 -8.85 23.7 -7.95 22.6 -8.7 25.05 -6.95 25.2 -5.25 25.35 -4.85 22.55 -4.85 25.25 -3.7 25.85 -2.6 26.5 -2.3 24.6 -1.4 26.3 -0.2 26.1 1.0 25.9 0.8 24.3 Z" fill="none" stroke="#706f6f" stroke-linecap="butt" stroke-linejoin="miter" stroke-miterlimit="10.0" stroke-width="1.0"/>
    <path d="M13.35 5.7 L14.8 4.3 20.1 -1.6 26.85 -8.85 Q28.25 -10.1 28.7 -9.6 29.1 -9.1 28.55 -7.55 30.2 -9.15 30.7 -8.1 31.15 -7.15 30.35 -5.45 32.2 -6.3 32.25 -5.3 32.3 -4.45 31.2 -3.4 33.0 -3.55 32.55 -2.35 32.1 -1.2 29.8 -1.45 31.6 -0.75 31.3 0.2 31.05 1.2 29.15 0.8 30.5 1.65 29.6 2.2 L26.7 2.45 Q28.0 3.35 27.35 4.35 26.65 5.35 24.8 4.9 26.0 6.35 24.8 6.8 23.55 7.2 21.55 5.4 23.35 7.55 22.1 8.7 20.85 9.85 19.55 7.7 19.7 9.1 18.85 9.55 18.0 10.0 17.6 8.25 16.0 10.4 15.6 9.0 L15.5 7.15 Q14.95 7.85 13.55 7.5 12.15 7.2 13.35 5.7" fill="#e5e5e4" fill-rule="evenodd" stroke="none"/>
    <path d="M13.35 5.7 Q12.15 7.2 13.55 7.5 14.95 7.85 15.5 7.15 L15.6 9.0 Q16.0 10.4 17.6 8.25 18.0 10.0 18.85 9.55 19.7 9.1 19.55 7.7 20.85 9.85 22.1 8.7 23.35 7.55 21.55 5.4 23.55 7.2 24.8 6.8 26.0 6.35 24.8 4.9 26.65 5.35 27.35 4.35 28.0 3.35 26.7 2.45 L29.6 2.2 Q30.5 1.65 29.15 0.8 31.05 1.2 31.3 0.2 31.6 -0.75 29.8 -1.45 32.1 -1.2 32.55 -2.35 33.0 -3.55 31.2 -3.4 32.3 -4.45 32.25 -5.3 32.2 -6.3 30.35 -5.45 31.15 -7.15 30.7 -8.1 30.2 -9.15 28.55 -7.55 29.1 -9.1 28.7 -9.6 28.25 -10.1 26.85 -8.85 L20.1 -1.6 14.8 4.3 13.35 5.7 Z" fill="none" stroke="#706f6f" stroke-linecap="butt" stroke-linejoin="miter" stroke-miterlimit="10.0" stroke-width="1.0"/>
    <path d="M-28.6 -9.25 L-16.1 3.45 -14.6 4.85 Q-13.35 6.3 -14.75 6.65 -15.6 6.9 -16.25 6.65 L-16.75 6.35 -16.8 8.2 Q-17.15 9.6 -18.8 7.55 -19.1 9.3 -20.0 8.85 -20.85 8.4 -20.75 7.0 -22.0 9.25 -23.3 8.15 -24.55 7.05 -22.85 4.8 -24.8 6.65 -26.05 6.3 -27.25 5.9 -26.1 4.4 -27.9 4.95 -28.65 3.95 -29.35 2.95 -28.1 2.0 L-30.95 1.9 Q-31.95 1.35 -30.55 0.45 -32.45 0.95 -32.75 -0.05 -33.1 -1.05 -31.3 -1.8 -33.55 -1.45 -34.05 -2.6 -34.55 -3.75 -32.8 -3.65 -33.9 -4.7 -33.9 -5.55 -33.85 -6.55 -32.0 -5.75 -32.85 -7.4 -32.45 -8.4 -31.95 -9.5 -30.25 -7.95 -30.85 -9.45 -30.45 -9.95 -30.0 -10.5 -28.6 -9.25" fill="#e5e5e4" fill-rule="evenodd" stroke="none"/>
    <path d="M-28.6 -9.25 L-16.1 3.45 -14.6 4.85 Q-13.35 6.3 -14.75 6.65 -15.6 6.9 -16.25 6.65 L-16.75 6.35 -16.8 8.2 Q-17.15 9.6 -18.8 7.55 -19.1 9.3 -20.0 8.85 -20.85 8.4 -20.75 7.0 -22.0 9.25 -23.3 8.15 -24.55 7.05 -22.85 4.8 -24.8 6.65 -26.05 6.3 -27.25 5.9 -26.1 4.4 -27.9 4.95 -28.65 3.95 -29.35 2.95 -28.1 2.0 L-30.95 1.9 Q-31.95 1.35 -30.55 0.45 -32.45 0.95 -32.75 -0.05 -33.1 -1.05 -31.3 -1.8 -33.55 -1.45 -34.05 -2.6 -34.55 -3.75 -32.8 -3.65 -33.9 -4.7 -33.9 -5.55 -33.85 -6.55 -32.0 -5.75 -32.85 -7.4 -32.45 -8.4 -31.95 -9.5 -30.25 -7.95 -30.85 -9.45 -30.45 -9.95 -30.0 -10.5 -28.6 -9.25 Z" fill="none" stroke="#706f6f" stroke-linecap="butt" stroke-linejoin="miter" stroke-miterlimit="10.0" stroke-width="1.0"/>
  </g>
</svg>
