<?xml version="1.0" encoding="UTF-8" standalone="no"?>
<svg xmlns:xlink="http://www.w3.org/1999/xlink" height="56.95px" width="13.35px" xmlns="http://www.w3.org/2000/svg">
  <g transform="matrix(1.0, 0.0, 0.0, 1.0, 6.65, 29.05)">
    <path d="M-6.15 -8.25 L-6.15 -25.45 Q-6.15 -27.35 -4.25 -27.35 L4.3 -27.35 Q6.2 -27.35 6.2 -25.45 L6.2 -8.25 -6.15 -8.25 M4.5 -25.6 L3.1 -25.6 3.1 -21.3 4.5 -21.3 4.5 -25.6 M2.0 -14.85 L2.0 -15.95 0.8 -15.95 0.8 -14.75 0.8 -13.25 4.8 -13.25 4.8 -14.85 2.0 -14.85 M-3.25 -25.6 L-4.65 -25.6 -4.65 -21.3 -3.25 -21.3 -3.25 -25.6" fill="#ffffff" fill-rule="evenodd" stroke="none"/>
    <path d="M4.5 -25.6 L4.5 -21.3 3.1 -21.3 3.1 -25.6 4.5 -25.6 M4.5 20.5 L4.5 24.8 3.1 24.8 3.1 20.5 4.5 20.5 M-3.25 -25.6 L-3.25 -21.3 -4.65 -21.3 -4.65 -25.6 -3.25 -25.6 M-3.25 20.5 L-3.25 24.8 -4.65 24.8 -4.65 20.5 -3.25 20.5" fill="#000000" fill-rule="evenodd" stroke="none"/>
    <path d="M-6.15 -8.25 L6.2 -8.25 6.2 -6.8 6.2 10.3 6.2 11.25 -6.15 11.25 -6.15 -8.25 M0.8 -14.75 L0.8 -15.95 2.0 -15.95 2.0 -14.85 2.0 -14.75 0.8 -14.75 M6.2 -6.8 L-1.8 -6.8 -1.8 10.3 6.2 10.3 -1.8 10.3 -1.8 -6.8 6.2 -6.8" fill="#000033" fill-rule="evenodd" stroke="none"/>
    <path d="M6.2 11.25 L6.2 25.5 Q6.2 27.4 4.3 27.4 L-4.25 27.4 Q-6.15 27.4 -6.15 25.5 L-6.15 11.25 6.2 11.25 M2.0 -14.85 L4.8 -14.85 4.8 -13.25 0.8 -13.25 0.8 -14.75 2.0 -14.75 2.0 -14.85 M4.5 20.5 L3.1 20.5 3.1 24.8 4.5 24.8 4.5 20.5 M-3.25 20.5 L-4.65 20.5 -4.65 24.8 -3.25 24.8 -3.25 20.5" fill="#ff0000" fill-rule="evenodd" stroke="none"/>
    <path d="M3.3 -27.75 L3.4 -28.0 M0.35 -27.75 L0.35 -28.0 M-3.3 -27.75 L-3.35 -28.05" fill="none" stroke="#000000" stroke-linecap="round" stroke-linejoin="round" stroke-width="2.0"/>
    <path d="M6.2 -8.25 L6.2 -25.45 Q6.2 -27.35 4.3 -27.35 L-4.25 -27.35 Q-6.15 -27.35 -6.15 -25.45 L-6.15 -8.25 -6.15 11.25 -6.15 25.5 Q-6.15 27.4 -4.25 27.4 L4.3 27.4 Q6.2 27.4 6.2 25.5 L6.2 11.25 6.2 10.3 6.2 -6.8 6.2 -8.25" fill="none" stroke="#000000" stroke-linecap="round" stroke-linejoin="round" stroke-width="1.0"/>
    <path d="M6.2 10.3 L-1.8 10.3 -1.8 -6.8 6.2 -6.8" fill="none" stroke="#000066" stroke-linecap="round" stroke-linejoin="round" stroke-width="1.0"/>
    <path d="M2.8 -10.1 L2.8 -9.05 2.6 -9.05 2.15 -9.75 2.15 -9.05 1.95 -9.05 1.95 -10.1 2.15 -10.1 2.6 -9.4 2.6 -10.1 2.8 -10.1 M3.2 -10.1 L3.2 -9.05 3.0 -9.05 3.0 -10.1 3.2 -10.1 M3.6 -10.1 L3.8 -9.75 4.0 -10.1 4.25 -10.1 3.9 -9.6 4.3 -9.05 4.0 -9.05 3.8 -9.4 3.55 -9.05 3.3 -9.05 3.65 -9.6 3.35 -10.1 3.6 -10.1 M4.8 -9.9 L4.7 -9.95 4.6 -9.9 4.55 -9.8 4.35 -9.8 4.45 -10.05 4.7 -10.1 4.95 -10.0 5.05 -9.8 5.0 -9.7 4.95 -9.55 4.65 -9.25 5.05 -9.25 5.05 -9.05 4.35 -9.05 4.4 -9.25 4.65 -9.5 4.8 -9.7 4.85 -9.8 4.8 -9.9 M0.25 -9.7 L0.7 -9.7 0.7 -9.5 0.25 -9.5 0.25 -9.05 0.05 -9.05 0.05 -10.1 0.8 -10.1 0.8 -9.95 0.25 -9.95 0.25 -9.7 M1.15 -9.7 L1.7 -9.7 1.7 -9.5 1.15 -9.5 1.15 -9.25 1.75 -9.25 1.75 -9.05 0.95 -9.05 0.95 -10.1 1.75 -10.1 1.75 -9.95 1.15 -9.95 1.15 -9.7" fill="#000000" fill-rule="evenodd" stroke="none"/>
  </g>
</svg>
