<?xml version="1.0" encoding="utf-8"?>
<!-- Generator: Adobe Illustrator 26.0.1, SVG Export Plug-In . SVG Version: 6.00 Build 0)  -->
<svg version="1.1" id="Capa_1" xmlns="http://www.w3.org/2000/svg" xmlns:xlink="http://www.w3.org/1999/xlink" x="0px" y="0px"
	 viewBox="0 0 28.5 921.5" style="enable-background:new 0 0 28.5 921.5;" xml:space="preserve">
<style type="text/css">
	.st0{fill-rule:evenodd;clip-rule:evenodd;fill:#2E231F;}
	.st1{fill-rule:evenodd;clip-rule:evenodd;fill:url(#SVGID_1_);}
	.st2{fill:none;stroke:#706F6F;stroke-width:0.5;stroke-miterlimit:10;}
	.st3{fill-rule:evenodd;clip-rule:evenodd;fill:url(#SVGID_00000176015511061131380140000016992453661480708533_);}
	.st4{fill-rule:evenodd;clip-rule:evenodd;fill:url(#SVGID_00000052065402702617397350000009705390939689020809_);}
	.st5{fill-rule:evenodd;clip-rule:evenodd;fill:#E5E5E4;}
	.st6{fill:none;stroke:#706F6F;stroke-miterlimit:10;}
</style>
<g transform="matrix(1.0, 0.0, 0.0, 1.0, 14.25, 460.9)">
	<path class="st0" d="M14.2-460.3v920.9h-28.5v-920.9H14.2"/>
	
		<linearGradient id="SVGID_1_" gradientUnits="userSpaceOnUse" x1="-833.45" y1="-274.875" x2="804.95" y2="-274.875" gradientTransform="matrix(8.500000e-03 0 0 8.500000e-03 -288.1554 -213.2169)">
		<stop  offset="0" style="stop-color:#878787"/>
		<stop  offset="0.1686" style="stop-color:#A7A7A6"/>
		<stop  offset="0.4196" style="stop-color:#CECECE"/>
		<stop  offset="0.6431" style="stop-color:#E9E9E9"/>
		<stop  offset="0.8235" style="stop-color:#F9F9F9"/>
		<stop  offset="0.9412" style="stop-color:#FFFFFF"/>
	</linearGradient>
	<path class="st1" d="M7.2-460.6v371.5H-6.7v-371.5H7.2"/>
	<path class="st2" d="M7.2-460.6v371.5H-6.7v-371.5H7.2z"/>
	
		<linearGradient id="SVGID_00000178181414805691529060000003782423060249821592_" gradientUnits="userSpaceOnUse" x1="-833.45" y1="165.775" x2="804.95" y2="165.775" gradientTransform="matrix(5.300000e-03 0 0 5.300000e-03 -289.5822 228.7007)">
		<stop  offset="0" style="stop-color:#878787"/>
		<stop  offset="0.1686" style="stop-color:#A7A7A6"/>
		<stop  offset="0.4196" style="stop-color:#CECECE"/>
		<stop  offset="0.6431" style="stop-color:#E9E9E9"/>
		<stop  offset="0.8235" style="stop-color:#F9F9F9"/>
		<stop  offset="0.9412" style="stop-color:#FFFFFF"/>
	</linearGradient>
	<path style="fill-rule:evenodd;clip-rule:evenodd;fill:url(#SVGID_00000178181414805691529060000003782423060249821592_);" d="
		M4.2-89.1v509.8h-8.8V-89.1H4.2"/>
	<path class="st2" d="M4.2-89.1v509.8h-8.8V-89.1H4.2z"/>
	
		<linearGradient id="SVGID_00000093857626906017108030000006762256068483780250_" gradientUnits="userSpaceOnUse" x1="-833.45" y1="426.075" x2="804.95" y2="426.075" gradientTransform="matrix(3.600000e-03 0 0 3.600000e-03 -289.8011 489.624)">
		<stop  offset="0" style="stop-color:#878787"/>
		<stop  offset="0.1686" style="stop-color:#A7A7A6"/>
		<stop  offset="0.4196" style="stop-color:#CECECE"/>
		<stop  offset="0.6431" style="stop-color:#E9E9E9"/>
		<stop  offset="0.8235" style="stop-color:#F9F9F9"/>
		<stop  offset="0.9412" style="stop-color:#FFFFFF"/>
	</linearGradient>
	<path style="fill-rule:evenodd;clip-rule:evenodd;fill:url(#SVGID_00000093857626906017108030000006762256068483780250_);" d="
		M3,420.8v10.6h-5.8v-10.6H3"/>
	<path class="st2" d="M3,420.8v10.6h-5.8v-10.6H3z"/>
</g>
<g transform="matrix(1.0, 0.0, 0.0, 1.0, 34.65, 30.9)">
	<path class="st5" d="M-26.9,867.2l3.9,4.9l-2.2,2.2l-4.4-4.4L-26.9,867.2"/>
	<path class="st6" d="M-26.9,867.2l-2.8,2.7l4.4,4.4l2.2-2.2L-26.9,867.2z"/>
	<path class="st5" d="M-13.5,866.9l3.1,3l-4.4,4.4l-2.3-2.2L-13.5,866.9"/>
	<path class="st6" d="M-13.5,866.9l3.1,3l-4.4,4.4l-2.3-2.2L-13.5,866.9z"/>
	<path class="st5" d="M-13.5,872.1h-13.4v-5.5h13.4V872.1"/>
	<path class="st6" d="M-13.5,872.1h-13.4v-5.5h13.4V872.1z"/>
	<path class="st5" d="M-16.4,867.6h-8v-3.4h8V867.6"/>
	<path class="st6" d="M-16.4,867.6h-8v-3.4h8V867.6z"/>
	<path class="st5" d="M-17.7,864.5H-23v-2.1h5.3V864.5"/>
	<path class="st6" d="M-17.7,864.5H-23v-2.1h5.3V864.5z"/>
	<path class="st5" d="M-17.4,878.6H-23v-6.5h5.7V878.6"/>
	<path class="st6" d="M-17.4,878.6H-23v-6.5h5.7V878.6z"/>
	<path class="st5" d="M-19.7,881.2c0,0.4-0.1,0.6-0.4,0.6s-0.5-0.1-0.7-0.5c-0.1,0.4-0.2,0.6-0.5,0.4c-0.3-0.1-0.4-0.5-0.4-1.1
		c-0.1,0.6-0.3,0.9-0.7,0.9c-0.4,0-0.5-0.3-0.4-0.9c-0.2,0.3-0.4,0.3-0.6,0.3c-0.2-0.1-0.2-0.3,0-0.6c-0.6,0.1-0.8-0.1-0.7-0.3
		l0.5-0.5c-0.2,0-0.4-0.1-0.6-0.4c-0.2-0.3,0-0.4,0.4-0.5l0.7,0l2.8,0l3.5,0c0.4,0,0.7,0.1,0.6,0.3c0,0.1-0.2,0.3-0.6,0.4
		c0.5,0,0.8,0.2,0.7,0.4c-0.1,0.2-0.4,0.4-0.8,0.5c0.4,0.2,0.6,0.4,0.4,0.5c-0.2,0.1-0.4,0.2-0.8,0.2c0.3,0.3,0.3,0.5,0.1,0.6
		c-0.3,0.1-0.6-0.1-0.9-0.5c0.2,0.4,0.1,0.7-0.1,0.8c-0.2,0.1-0.5,0-0.7-0.4c0.1,0.4,0,0.5-0.2,0.4
		C-19.2,881.8-19.4,881.6-19.7,881.2"/>
	<path class="st6" d="M-19.7,881.2c0.3,0.4,0.5,0.6,0.7,0.7c0.2,0.1,0.3-0.1,0.2-0.4c0.2,0.4,0.5,0.5,0.7,0.4
		c0.2-0.1,0.2-0.4,0.1-0.8c0.3,0.4,0.6,0.6,0.9,0.5c0.3-0.1,0.3-0.3-0.1-0.6c0.4,0,0.6,0,0.8-0.2c0.2-0.1,0-0.3-0.4-0.5
		c0.4-0.1,0.7-0.3,0.8-0.5c0.1-0.3-0.1-0.4-0.7-0.4c0.4-0.1,0.5-0.3,0.6-0.4c0-0.2-0.2-0.3-0.6-0.3l-3.5,0l-2.8,0l-0.7,0
		c-0.4,0-0.6,0.2-0.4,0.5c0.2,0.3,0.4,0.4,0.6,0.4l-0.5,0.5c-0.2,0.3,0,0.4,0.7,0.3c-0.2,0.3-0.3,0.5,0,0.6c0.2,0.1,0.4,0,0.6-0.3
		c-0.2,0.6-0.1,0.9,0.4,0.9c0.4,0,0.6-0.3,0.7-0.9c0,0.6,0.1,1,0.4,1.1c0.3,0.1,0.4,0,0.5-0.4c0.2,0.4,0.5,0.6,0.7,0.5
		S-19.6,881.6-19.7,881.2z"/>
	<path class="st5" d="M-15.3,874.8l0.5-0.5l1.9-2l2.4-2.5c0.3-0.3,0.5-0.4,0.7-0.3c0.1,0.1,0.1,0.4-0.1,0.7c0.4-0.4,0.6-0.4,0.8-0.2
		c0.1,0.2,0.1,0.5-0.1,0.9c0.4-0.2,0.7-0.2,0.7,0.1c0,0.2-0.1,0.4-0.4,0.7c0.4,0,0.6,0.1,0.5,0.4c-0.1,0.3-0.4,0.4-1,0.3
		c0.4,0.2,0.6,0.4,0.5,0.6c-0.1,0.2-0.3,0.3-0.8,0.2c0.3,0.2,0.4,0.4,0.2,0.5l-1,0.1c0.3,0.2,0.4,0.4,0.2,0.7
		c-0.2,0.2-0.5,0.3-0.9,0.2c0.3,0.3,0.3,0.6,0,0.7c-0.3,0.1-0.7-0.1-1.1-0.5c0.4,0.5,0.5,0.9,0.2,1.1c-0.3,0.3-0.6,0.1-0.9-0.3
		c0,0.3,0,0.5-0.2,0.6c-0.2,0.1-0.3,0-0.4-0.4c-0.4,0.5-0.6,0.6-0.7,0.3l0-0.6c-0.1,0.2-0.4,0.2-0.7,0.1
		C-15.5,875.3-15.5,875.1-15.3,874.8"/>
	<path class="st6" d="M-15.3,874.8c-0.3,0.3-0.3,0.6,0.1,0.6c0.3,0.1,0.6,0,0.7-0.1l0,0.6c0.1,0.3,0.3,0.2,0.7-0.3
		c0.1,0.4,0.2,0.6,0.4,0.4c0.2-0.1,0.3-0.3,0.2-0.6c0.3,0.5,0.6,0.6,0.9,0.3c0.3-0.3,0.2-0.6-0.2-1.1c0.5,0.4,0.9,0.6,1.1,0.5
		c0.3-0.1,0.3-0.3,0-0.7c0.4,0.1,0.7,0,0.9-0.2c0.2-0.2,0.1-0.4-0.2-0.7l1-0.1c0.2-0.1,0.2-0.3-0.2-0.5c0.4,0.1,0.7,0,0.8-0.2
		c0.1-0.2-0.1-0.4-0.5-0.6c0.5,0.1,0.9,0,1-0.3c0.1-0.3-0.1-0.4-0.5-0.4c0.3-0.2,0.4-0.5,0.4-0.7c0-0.2-0.2-0.2-0.7-0.1
		c0.2-0.4,0.2-0.7,0.1-0.9c-0.1-0.2-0.4-0.2-0.8,0.2c0.1-0.4,0.1-0.6,0.1-0.7c-0.1-0.1-0.3,0-0.7,0.3l-2.4,2.5l-1.9,2L-15.3,874.8z"
		/>
	<path class="st5" d="M-30.1,869.6l4.4,4.4l0.5,0.5c0.3,0.3,0.3,0.5-0.1,0.6c-0.2,0.1-0.4,0.1-0.5,0l-0.2-0.1l0,0.6
		c-0.1,0.3-0.3,0.2-0.7-0.2c-0.1,0.4-0.2,0.6-0.4,0.4c-0.2-0.1-0.3-0.3-0.3-0.6c-0.3,0.5-0.6,0.6-0.9,0.4c-0.3-0.3-0.2-0.6,0.2-1.2
		c-0.5,0.4-0.8,0.6-1.1,0.5c-0.3-0.1-0.3-0.3,0-0.7c-0.4,0.1-0.7,0.1-0.9-0.2c-0.2-0.2-0.1-0.5,0.2-0.7l-1,0
		c-0.2-0.1-0.2-0.3,0.1-0.5c-0.4,0.1-0.7,0.1-0.8-0.2c-0.1-0.2,0.1-0.4,0.5-0.6c-0.5,0.1-0.9,0-1-0.3c-0.1-0.3,0-0.4,0.4-0.4
		c-0.3-0.2-0.4-0.5-0.4-0.7c0-0.2,0.2-0.3,0.7-0.1c-0.2-0.4-0.3-0.7-0.2-0.9c0.1-0.3,0.4-0.2,0.8,0.2c-0.1-0.3-0.2-0.6-0.1-0.7
		C-30.6,869.3-30.4,869.4-30.1,869.6"/>
	<path class="st6" d="M-30.1,869.6l4.4,4.4l0.5,0.5c0.3,0.3,0.3,0.5-0.1,0.6c-0.2,0.1-0.4,0.1-0.5,0l-0.2-0.1l0,0.6
		c-0.1,0.3-0.3,0.2-0.7-0.2c-0.1,0.4-0.2,0.6-0.4,0.4c-0.2-0.1-0.3-0.3-0.3-0.6c-0.3,0.5-0.6,0.6-0.9,0.4c-0.3-0.3-0.2-0.6,0.2-1.2
		c-0.5,0.4-0.8,0.6-1.1,0.5c-0.3-0.1-0.3-0.3,0-0.7c-0.4,0.1-0.7,0.1-0.9-0.2c-0.2-0.2-0.1-0.5,0.2-0.7l-1,0
		c-0.2-0.1-0.2-0.3,0.1-0.5c-0.4,0.1-0.7,0.1-0.8-0.2c-0.1-0.2,0.1-0.4,0.5-0.6c-0.5,0.1-0.9,0-1-0.3c-0.1-0.3,0-0.4,0.4-0.4
		c-0.3-0.2-0.4-0.5-0.4-0.7c0-0.2,0.2-0.3,0.7-0.1c-0.2-0.4-0.3-0.7-0.2-0.9c0.1-0.3,0.4-0.2,0.8,0.2c-0.1-0.3-0.2-0.6-0.1-0.7
		C-30.6,869.3-30.4,869.4-30.1,869.6z"/>
</g>
</svg>
