<?xml version="1.0" encoding="utf-8"?>
<!-- Generator: Adobe Illustrator 26.0.1, SVG Export Plug-In . SVG Version: 6.00 Build 0)  -->
<svg version="1.1" id="Capa_1" xmlns="http://www.w3.org/2000/svg" xmlns:xlink="http://www.w3.org/1999/xlink" x="0px" y="0px"
	 viewBox="0 0 28.5 921.5" style="enable-background:new 0 0 28.5 921.5;" xml:space="preserve">
<style type="text/css">
	.st0{fill-rule:evenodd;clip-rule:evenodd;fill:#2E231F;}
	.st1{fill-rule:evenodd;clip-rule:evenodd;fill:#FFFFFF;}
	.st2{fill-rule:evenodd;clip-rule:evenodd;}
	.st3{fill-rule:evenodd;clip-rule:evenodd;fill:#000033;}
	.st4{fill-rule:evenodd;clip-rule:evenodd;fill:#FF0000;}
	.st5{fill:none;stroke:#000000;stroke-width:2;stroke-linecap:round;stroke-linejoin:round;}
	.st6{fill:none;stroke:#000000;stroke-linecap:round;stroke-linejoin:round;}
	.st7{fill:none;stroke:#000066;stroke-linecap:round;stroke-linejoin:round;}
	.st8{fill:none;stroke:#494949;stroke-width:4;stroke-miterlimit:10;}
</style>
<g transform="matrix(1.0, 0.0, 0.0, 1.0, 14.25, 460.9)">
	<path class="st0" d="M14.2-460.3v920.9h-28.5v-920.9H14.2"/>
	<g transform="matrix(1.0, 0.0, 0.0, 1.0, 6.65, 29.05)">
		<path class="st1" d="M-12.4,383.1v-17.2c0-1.3,0.6-1.9,1.9-1.9H-2c1.3,0,1.9,0.6,1.9,1.9v17.2H-12.4 M-1.8,365.8h-1.4v4.3h1.4
			V365.8 M-4.3,376.5v-1.1h-1.2v1.2v1.5h4v-1.6H-4.3 M-9.5,365.8h-1.4v4.3h1.4V365.8"/>
		<path class="st2" d="M-1.8,365.8v4.3h-1.4v-4.3H-1.8 M-1.8,411.9v4.3h-1.4v-4.3H-1.8 M-9.5,365.8v4.3h-1.4v-4.3H-9.5 M-9.5,411.9
			v4.3h-1.4v-4.3H-9.5"/>
		<path class="st3" d="M-12.4,383.1h12.4v1.5v17.1v0.9h-12.4V383.1 M-5.5,376.6v-1.2h1.2v1.1v0.1H-5.5 M-0.1,384.6h-8v17.1h8h-8
			v-17.1H-0.1"/>
		<path class="st4" d="M-0.1,402.6v14.2c0,1.3-0.6,1.9-1.9,1.9h-8.6c-1.3,0-1.9-0.6-1.9-1.9v-14.2H-0.1 M-4.3,376.5h2.8v1.6h-4v-1.5
			h1.2V376.5 M-1.8,411.9h-1.4v4.3h1.4V411.9 M-9.5,411.9h-1.4v4.3h1.4V411.9"/>
		<path class="st5" d="M-3,363.6l0.1-0.2 M-5.9,363.6v-0.2 M-9.6,363.6l-0.1-0.3"/>
		<path class="st6" d="M-0.1,383.1v-17.2c0-1.3-0.6-1.9-1.9-1.9h-8.6c-1.3,0-1.9,0.6-1.9,1.9v17.2v19.5v14.2c0,1.3,0.6,1.9,1.9,1.9
			H-2c1.3,0,1.9-0.6,1.9-1.9v-14.2v-0.9v-17.1V383.1"/>
		<path class="st7" d="M-0.1,401.7h-8v-17.1h8"/>
		<path class="st2" d="M-3.5,381.3v1.1h-0.2l-0.4-0.7v0.7h-0.2v-1.1h0.2l0.4,0.7v-0.7H-3.5 M-3.1,381.3v1.1h-0.2v-1.1H-3.1
			 M-2.7,381.3l0.2,0.4l0.2-0.4H-2l-0.3,0.5l0.4,0.6h-0.3l-0.2-0.4l-0.2,0.4H-3l0.4-0.6l-0.3-0.5H-2.7 M-1.5,381.5l-0.1,0l-0.1,0
			l0,0.1h-0.2l0.1-0.2l0.2-0.1l0.2,0.1l0.1,0.2l-0.1,0.1l-0.1,0.1l-0.3,0.3h0.4v0.2h-0.7l0.1-0.2l0.2-0.2l0.2-0.2l0-0.1L-1.5,381.5
			 M-6,381.7h0.4v0.2H-6v0.5h-0.2v-1.1h0.8v0.2H-6V381.7 M-5.1,381.7h0.5v0.2h-0.5v0.2h0.6v0.2h-0.8v-1.1h0.8v0.2h-0.6V381.7"/>
	</g>
	<line class="st8" x1="0.7" y1="392.4" x2="0.7" y2="-452.8"/>
</g>
</svg>
